#format: frame checksums
#version: 1
#hash: MD5
#tb 0: 1001/30000
#stream#, dts,        pts, duration,     size, hash
0,          0,          0,        1,      918, ab7eabb355e5163e7451945018fadebd
0,          1,          1,        1,      918, b9a77cc0c769535808996a6de7b374ff
0,          2,          2,        1,      918, bd773f11d89091b3c9ebc22d8291dd49
0,          3,          3,        1,      918, 278c215d6c188752818f07f4d317c0e0
0,          4,          4,        1,      918, b59856932c675c1ba587644c23cdb002
0,          5,          5,        1,      918, 2bcaef04f89326a56025269a68742043
0,          6,          6,        1,      918, 5abb4a1b96b4bc003cd19a146347c54e
0,          7,          7,        1,      918, 26e36058f451ff80d498ac1c0343489f
0,          8,          8,        1,      918, 57ac43fcc6f1a2c863188aca68d52524
0,          9,          9,        1,      918, 282467118b5b7a986ccd28d16dab3ea7
